<?xml version="1.0" encoding="UTF-8" standalone="no"?>
<!DOCTYPE svg PUBLIC "-//W3C//DTD SVG 1.1//EN" "http://www.w3.org/Graphics/SVG/1.1/DTD/svg11.dtd">
<svg width="100%" height="100%" viewBox="0 0 879 720" version="1.1" xmlns="http://www.w3.org/2000/svg" xmlns:xlink="http://www.w3.org/1999/xlink" xml:space="preserve" xmlns:serif="http://www.serif.com/" style="fill-rule:evenodd;clip-rule:evenodd;stroke-linejoin:round;stroke-miterlimit:2;">
    <g transform="matrix(1,0,0,1,-1182.25,-1981.3)">
        <g>
            <g transform="matrix(1,-1.22465e-16,-1.22465e-16,-1,317.704,4205.61)">
                <path d="M1144.41,2167.49L944.74,2168.22L1144.41,2167.49ZM1144.41,2167.49L1608.79,2167.49L1608.79,2015.6L1663.97,2015.6L1663.97,2224.31L944.74,2224.31L944.74,2168.22L1144.41,2167.49ZM1663.97,1566.97L1608.79,1565.54L1006.84,1565.54L1006.84,1688.67L944.74,1688.67L944.74,1505.08L1663.97,1505.08L1663.97,1566.97Z" style="fill:rgb(191,67,66);"/>
            </g>
            <g transform="matrix(4.90601,0,0,4.90601,-4675.98,-5905.21)">
                <text x="1215.42px" y="1658.3px" style="font-family:'Silom';font-size:20.383px;fill:white;">Project</text>
                <g transform="matrix(50,0,0,50,1377.39,1708.3)">
                </g>
                <text x="1189.94px" y="1708.3px" style="font-family:'Silom';font-size:50px;fill:white;">KELSEY</text>
            </g>
        </g>
    </g>
</svg>
